PathFileType	4	(X/Y/Z)	 0.16m3min.trc
DataRate	CameraRate	NumFrames	NumMarkers	Units	OrigDataRate	OrigDataStartFrame	OrigNumFrames
200	200	9	39	m	200	126	1000
Frame#	Time	C7			LSH			RSH			MAN			RASI			LASI			HIPR			HIPL			RPSI			LPSI			COX			RTHI1			RTHI2			RTHI3			RTHI4			RLKN			RMKN			RSHA1			RSHA2			RSHA3			RSHA4			RHEEL			RMET5			RMET1			RTOE			LTHI1			LTHI2			LTHI3			LTHI4			LLKN			LMKN			LSHA1			LSHA2			LSHA3			LSHA4			LHEEL			LMET5			LMET1			LTOE			
		X1	Y1	Z1	X2	Y2	Z2	X3	Y3	Z3	X4	Y4	Z4	X5	Y5	Z5	X6	Y6	Z6	X7	Y7	Z7	X8	Y8	Z8	X9	Y9	Z9	X10	Y10	Z10	X11	Y11	Z11	X12	Y12	Z12	X13	Y13	Z13	X14	Y14	Z14	X15	Y15	Z15	X16	Y16	Z16	X17	Y17	Z17	X18	Y18	Z18	X19	Y19	Z19	X20	Y20	Z20	X21	Y21	Z21	X22	Y22	Z22	X23	Y23	Z23	X24	Y24	Z24	X25	Y25	Z25	X26	Y26	Z26	X27	Y27	Z27	X28	Y28	Z28	X29	Y29	Z29	X30	Y30	Z30	X31	Y31	Z31	X32	Y32	Z32	X33	Y33	Z33	X34	Y34	Z34	X35	Y35	Z35	X36	Y36	Z36	X37	Y37	Z37	X38	Y38	Z38	X39	Y39	Z39	
126	0.6300	-0.323271	1.413494	-0.552462	-0.285527	1.396188	-0.745664	-0.289012	1.402327	-0.369114	-0.158867	1.363375	-0.560382	-0.214888	0.900363	-0.428940	-0.209030	0.900856	-0.672344	-0.288499	0.952054	-0.381516	-0.282453	0.959423	-0.718141	-0.385334	0.957297	-0.520526	-0.382851	0.958449	-0.581439	-0.382750	0.960352	-0.552078	-0.246440	0.685945	-0.338754	-0.222597	0.629591	-0.332855	-0.159272	0.665150	-0.334949	-0.188998	0.716724	-0.340935	-0.178434	0.430498	-0.357320	-0.141862	0.422201	-0.482999	-0.306493	0.229519	-0.380394	-0.331042	0.199167	-0.399207	-0.278100	0.169483	-0.401684	-0.258089	0.199125	-0.386408	-0.420123	0.076246	-0.476178	-0.269636	0.032011	-0.376693	-0.208033	0.048042	-0.448128	-0.176665	0.035264	-0.441917	-0.280724	0.652593	-0.742268	-0.253511	0.599766	-0.743210	-0.195441	0.632495	-0.772957	-0.230410	0.683279	-0.768710	-0.187882	0.417229	-0.743459	-0.155114	0.400859	-0.627548	-0.334368	0.225499	-0.711338	-0.355381	0.192834	-0.695642	-0.301085	0.162794	-0.703636	-0.286876	0.201489	-0.719365	-0.438677	0.080973	-0.630864	-0.282432	0.034860	-0.721729	-0.228706	0.049935	-0.650092	-0.198458	0.036924	-0.656307	
127	0.6350	-0.323863	1.416911	-0.552671	-0.286234	1.399858	-0.745768	-0.289573	1.406232	-0.369425	-0.159391	1.367316	-0.560568	-0.213948	0.904226	-0.429042	-0.208049	0.904488	-0.672725	-0.288183	0.955315	-0.381916	-0.281103	0.962286	-0.718607	-0.384329	0.960625	-0.521054	-0.381791	0.961857	-0.581916	-0.381722	0.963720	-0.552565	-0.246527	0.689316	-0.338939	-0.223144	0.632784	-0.332946	-0.159523	0.667801	-0.335156	-0.188820	0.719602	-0.341211	-0.180515	0.433196	-0.357343	-0.144132	0.424319	-0.482964	-0.307510	0.230914	-0.380238	-0.331830	0.200378	-0.399089	-0.278720	0.171047	-0.401397	-0.258898	0.200823	-0.386127	-0.419922	0.077100	-0.475856	-0.269576	0.031911	-0.376702	-0.207968	0.048060	-0.448000	-0.176617	0.035275	-0.441883	-0.280885	0.656144	-0.742894	-0.254043	0.603131	-0.743809	-0.195559	0.635524	-0.773085	-0.230200	0.686553	-0.768926	-0.189781	0.419311	-0.743442	-0.157764	0.403026	-0.627362	-0.335430	0.226492	-0.711239	-0.356155	0.193252	-0.695346	-0.301720	0.164018	-0.703726	-0.287796	0.202838	-0.719406	-0.438597	0.081554	-0.631128	-0.282401	0.034852	-0.721709	-0.228676	0.049941	-0.650129	-0.198450	0.036926	-0.656299	
128	0.6400	-0.324571	1.420963	-0.552857	-0.287131	1.404240	-0.745806	-0.290198	1.410818	-0.369764	-0.160011	1.371980	-0.560770	-0.212846	0.908724	-0.429162	-0.206972	0.908852	-0.673203	-0.287644	0.959419	-0.382321	-0.279995	0.965955	-0.718990	-0.383170	0.964592	-0.521488	-0.380601	0.965874	-0.582312	-0.380543	0.967679	-0.552967	-0.246754	0.693199	-0.339185	-0.223902	0.636472	-0.333122	-0.159944	0.670873	-0.335398	-0.188746	0.722927	-0.341503	-0.183295	0.436327	-0.357505	-0.146717	0.426849	-0.482982	-0.308947	0.232609	-0.380234	-0.332934	0.201827	-0.399153	-0.279635	0.172897	-0.401078	-0.260071	0.202856	-0.385807	-0.419712	0.078103	-0.475535	-0.269521	0.031837	-0.376713	-0.207903	0.048083	-0.447871	-0.176585	0.035282	-0.441851	-0.281152	0.660284	-0.743460	-0.254734	0.607070	-0.744327	-0.195816	0.639064	-0.773157	-0.230078	0.690363	-0.769101	-0.192196	0.421850	-0.743333	-0.160662	0.405709	-0.627122	-0.336686	0.227826	-0.711054	-0.357248	0.194532	-0.695351	-0.302490	0.165612	-0.703828	-0.288900	0.204581	-0.719450	-0.438463	0.082439	-0.631464	-0.282356	0.034839	-0.721660	-0.228608	0.049936	-0.650113	-0.198437	0.036875	-0.656216	
129	0.6450	-0.325384	1.425612	-0.553028	-0.288191	1.409280	-0.745781	-0.290889	1.416030	-0.370126	-0.160709	1.377322	-0.560991	-0.211581	0.913793	-0.429335	-0.205804	0.913861	-0.673738	-0.286797	0.964330	-0.382709	-0.279074	0.970514	-0.719288	-0.381869	0.969146	-0.521833	-0.379305	0.970454	-0.582632	-0.379271	0.972215	-0.553304	-0.247107	0.697581	-0.339472	-0.224861	0.640633	-0.333385	-0.160538	0.674351	-0.335692	-0.188785	0.726691	-0.341831	-0.186687	0.439884	-0.357772	-0.149637	0.429834	-0.483058	-0.310745	0.234588	-0.380305	-0.334321	0.203535	-0.399374	-0.280816	0.175046	-0.400722	-0.261572	0.205221	-0.385438	-0.419481	0.079288	-0.475195	-0.269476	0.031787	-0.376766	-0.207830	0.048097	-0.447750	-0.176563	0.035285	-0.441826	-0.281548	0.664976	-0.743917	-0.255598	0.611544	-0.744726	-0.196242	0.643073	-0.773162	-0.230085	0.694665	-0.769216	-0.195128	0.424866	-0.743138	-0.163771	0.408903	-0.626840	-0.338115	0.229510	-0.710833	-0.358258	0.195856	-0.694853	-0.303366	0.167591	-0.704015	-0.290168	0.206734	-0.719538	-0.438252	0.083559	-0.631868	-0.282288	0.034831	-0.721605	-0.228557	0.049936	-0.650157	-0.198435	0.036827	-0.656142	
130	0.6500	-0.326289	1.430815	-0.553188	-0.289384	1.414920	-0.745705	-0.291645	1.421813	-0.370509	-0.161482	1.383284	-0.561232	-0.210168	0.919367	-0.429588	-0.204552	0.919430	-0.674292	-0.285582	0.969956	-0.383082	-0.278255	0.975978	-0.719510	-0.380462	0.974248	-0.522098	-0.377929	0.975550	-0.582887	-0.377907	0.977284	-0.553575	-0.247589	0.702436	-0.339794	-0.226001	0.645260	-0.333731	-0.161294	0.678230	-0.336054	-0.188929	0.730886	-0.342209	-0.190610	0.443868	-0.358142	-0.152911	0.433287	-0.483213	-0.312829	0.236912	-0.380440	-0.335935	0.205524	-0.399685	-0.282194	0.177515	-0.400332	-0.263342	0.207929	-0.385028	-0.419223	0.080742	-0.474852	-0.269434	0.031759	-0.376859	-0.207755	0.048111	-0.447631	-0.176545	0.035292	-0.441805	-0.282094	0.670182	-0.744243	-0.256641	0.616520	-0.744978	-0.196859	0.647521	-0.773094	-0.230248	0.699430	-0.769261	-0.198536	0.428394	-0.742860	-0.167067	0.412584	-0.626525	-0.339693	0.231561	-0.710607	-0.359606	0.197890	-0.695059	-0.304333	0.169961	-0.704313	-0.291572	0.209309	-0.719710	-0.437972	0.084932	-0.632397	-0.282196	0.034810	-0.721574	-0.228494	0.049941	-0.650169	-0.198446	0.036774	-0.656032	
131	0.6550	-0.327278	1.436522	-0.553339	-0.290669	1.421100	-0.745585	-0.292450	1.428115	-0.370914	-0.162326	1.389799	-0.561484	-0.208632	0.925392	-0.429926	-0.203228	0.925482	-0.674837	-0.283976	0.976191	-0.383464	-0.277420	0.982271	-0.719676	-0.378980	0.979853	-0.522289	-0.376490	0.981119	-0.583098	-0.376447	0.982814	-0.553781	-0.248168	0.707764	-0.340171	-0.227293	0.650334	-0.334151	-0.162186	0.682500	-0.336487	-0.189163	0.735497	-0.342641	-0.194941	0.448317	-0.358596	-0.156552	0.437192	-0.483469	-0.315125	0.239556	-0.380612	-0.337700	0.207780	-0.399995	-0.283700	0.180255	-0.399899	-0.265300	0.210971	-0.384579	-0.418901	0.082456	-0.474451	-0.269395	0.031763	-0.376994	-0.207673	0.048120	-0.447516	-0.176538	0.035297	-0.441799	-0.282793	0.675877	-0.744426	-0.257863	0.621969	-0.745073	-0.197676	0.652384	-0.772953	-0.230576	0.704622	-0.769238	-0.202344	0.432465	-0.742517	-0.170543	0.416723	-0.626184	-0.341378	0.233988	-0.710437	-0.360935	0.199835	-0.694694	-0.305365	0.172739	-0.704746	-0.293080	0.212306	-0.719988	-0.437611	0.086598	-0.633112	-0.282065	0.034786	-0.721584	-0.228447	0.049936	-0.650216	-0.198484	0.036712	-0.655900	
132	0.6600	-0.328337	1.442684	-0.553486	-0.292015	1.427763	-0.745433	-0.293307	1.434880	-0.371340	-0.163238	1.396809	-0.561742	-0.207002	0.931818	-0.430337	-0.201843	0.931948	-0.675350	-0.282004	0.982936	-0.383886	-0.276478	0.989267	-0.719800	-0.377435	0.985902	-0.522426	-0.375006	0.987116	-0.583276	-0.374947	0.988793	-0.553951	-0.248806	0.713544	-0.340596	-0.228711	0.655852	-0.334645	-0.163185	0.687150	-0.336986	-0.189457	0.740492	-0.343111	-0.199579	0.453213	-0.359136	-0.160553	0.441503	-0.483854	-0.317542	0.242509	-0.380771	-0.339585	0.210365	-0.400300	-0.285322	0.183257	-0.399406	-0.267360	0.214360	-0.384098	-0.418501	0.084455	-0.473949	-0.269342	0.031788	-0.377153	-0.207594	0.048140	-0.447393	-0.176550	0.035305	-0.441809	-0.283631	0.682025	-0.744472	-0.259254	0.627862	-0.745013	-0.198679	0.657638	-0.772742	-0.231057	0.710214	-0.769151	-0.206454	0.437079	-0.742121	-0.174193	0.421282	-0.625818	-0.343133	0.236802	-0.710361	-0.362354	0.202561	-0.695009	-0.306420	0.175928	-0.705345	-0.294653	0.215739	-0.720384	-0.437144	0.088577	-0.634043	-0.281888	0.034755	-0.721638	-0.228416	0.049927	-0.650296	-0.198541	0.036648	-0.655747	
133	0.6650	-0.329446	1.449249	-0.553634	-0.293390	1.434843	-0.745259	-0.294218	1.442042	-0.371781	-0.164217	1.404245	-0.562002	-0.205305	0.938604	-0.430799	-0.200408	0.938790	-0.675819	-0.279706	0.990124	-0.384360	-0.275365	0.996797	-0.719895	-0.375844	0.992346	-0.522523	-0.373493	0.993494	-0.583424	-0.373441	0.995168	-0.554100	-0.249488	0.719748	-0.341057	-0.230224	0.661788	-0.335216	-0.164272	0.692152	-0.337538	-0.189788	0.745868	-0.343599	-0.204429	0.458549	-0.359776	-0.164886	0.446186	-0.484382	-0.319987	0.245759	-0.380859	-0.341499	0.213259	-0.400552	-0.286982	0.186532	-0.398832	-0.269454	0.218116	-0.383582	-0.418013	0.086782	-0.473319	-0.269269	0.031836	-0.377302	-0.207535	0.048146	-0.447251	-0.176587	0.035318	-0.441837	-0.284589	0.688608	-0.744400	-0.260789	0.634177	-0.744825	-0.199846	0.663259	-0.772471	-0.231671	0.716186	-0.769014	-0.210764	0.442220	-0.741690	-0.178001	0.426230	-0.625430	-0.344927	0.239977	-0.710378	-0.363583	0.205129	-0.694814	-0.307472	0.179518	-0.706116	-0.296262	0.219586	-0.720902	-0.436551	0.090880	-0.635191	-0.281658	0.034723	-0.721727	-0.228411	0.049930	-0.650457	-0.198623	0.036638	-0.655626	
134	0.6700	-0.330602	1.456161	-0.553778	-0.294772	1.442297	-0.745079	-0.295167	1.449549	-0.372238	-0.165254	1.412037	-0.562257	-0.203571	0.945714	-0.431290	-0.198936	0.945980	-0.676236	-0.277140	0.997700	-0.384879	-0.274063	1.004700	-0.719957	-0.374235	0.999142	-0.522573	-0.371992	1.000217	-0.583547	-0.371905	1.001868	-0.554213	-0.250218	0.726345	-0.341569	-0.231822	0.668105	-0.335871	-0.165440	0.697483	-0.338128	-0.190154	0.751583	-0.344082	-0.209444	0.464267	-0.360517	-0.169491	0.451211	-0.485067	-0.322437	0.249347	-0.380960	-0.343397	0.216468	-0.400695	-0.288630	0.190074	-0.398150	-0.271536	0.222238	-0.383030	-0.417437	0.089428	-0.472501	-0.269155	0.031918	-0.377405	-0.207495	0.048163	-0.447088	-0.176659	0.035338	-0.441889	-0.285648	0.695597	-0.744240	-0.262439	0.640887	-0.744532	-0.201146	0.669235	-0.772152	-0.232388	0.722516	-0.768839	-0.215186	0.447850	-0.741240	-0.181950	0.431532	-0.625015	-0.346728	0.243500	-0.710466	-0.364840	0.208444	-0.694963	-0.308498	0.183499	-0.707047	-0.297878	0.223830	-0.721540	-0.435821	0.093560	-0.636571	-0.281380	0.034684	-0.721849	-0.228353	0.049861	-0.650543	-0.198730	0.036621	-0.655459	
